<svg width="122" height="44" viewBox="0 0 122 44" fill="none" xmlns="http://www.w3.org/2000/svg">
<path d="M122.001 39.414C119.15 39.4777 116.299 39.4777 113.363 39.4777C113.363 39.1524 113.363 38.8887 113.363 38.6249C113.363 32.4659 113.369 26.3069 113.359 20.1479C113.357 18.8562 112.664 17.9459 111.573 17.3901C110.555 16.8719 109.2 17.1939 108.389 18.0693C107.848 18.6526 107.556 19.3535 107.557 20.178C107.564 26.3144 107.56 32.4507 107.56 38.5871C107.56 38.8543 107.56 39.1214 107.56 39.4329C104.68 39.4329 101.857 39.4329 98.9233 39.4329C98.9233 39.1812 98.9233 38.9209 98.9233 38.6606C98.9233 32.5922 98.9251 26.5237 98.9221 20.4553C98.9213 18.7654 98.2319 17.9562 96.9947 17.3608C95.2837 16.5373 93.1244 18.0477 93.1225 19.9742C93.1164 26.2465 93.1129 32.5187 93.133 38.7909C93.1347 39.3238 92.9663 39.5767 92.4934 39.805C89.8575 41.0774 87.2408 42.3903 84.5291 43.7331C84.5106 43.4508 84.4849 43.2414 84.4848 43.032C84.4828 34.9936 84.4477 26.9549 84.5069 18.9169C84.5225 16.8002 85.3648 14.8835 86.6406 13.1959C88.3691 10.9096 90.5861 9.28109 93.3996 8.71841C96.0845 8.18148 98.7545 8.33695 101.226 9.72601C101.785 10.04 102.295 10.4466 102.867 10.7289C103.083 10.8356 103.495 10.819 103.677 10.6765C106.247 8.66286 109.161 8.20558 112.305 8.61432C114.934 8.95621 117.077 10.2067 118.878 12.0916C120.252 13.5294 121.225 15.2179 121.733 17.162C121.764 17.2816 121.842 17.3888 121.95 17.4834C122.001 24.7601 122.001 32.0552 122.001 39.414Z" fill="#003830"/>
<path d="M0 0C1.15867 0.495418 2.32169 1.0456 3.47494 1.61583C4.99067 2.3653 6.49038 3.14816 8.01488 3.87882C8.50343 4.11298 8.66441 4.4096 8.65123 4.95288C8.61172 6.58075 8.63702 8.21021 8.63702 9.89472C9.60866 9.57816 10.5277 9.2257 11.4741 8.9799C14.9413 8.07946 18.3556 8.28916 21.6342 9.74436C25.09 11.2783 27.6442 13.833 29.3422 17.2105C30.3014 19.1187 30.7522 21.173 30.7878 23.3379C30.8257 25.6478 30.6681 27.9224 29.6677 30.019C29.0308 31.3538 28.2596 32.6539 27.3636 33.8262C25.8979 35.7437 24.0069 37.2037 21.8121 38.2062C20.0651 39.0042 18.2272 39.4509 16.286 39.4901C14.2681 39.5308 12.2741 39.4293 10.3533 38.7688C8.40548 38.099 6.69245 37.0337 5.14421 35.6479C3.51057 34.1856 2.19651 32.5 1.30629 30.5085C0.856512 29.5023 0.60905 28.4046 0.264319 27.3503C0.232289 27.2523 0.158325 27.1682 0.0519159 27.0951C4.02199e-09 18.0963 0 9.07997 0 0ZM8.77395 25.5163C9.13376 26.807 9.75612 27.9132 10.7114 28.8888C12.6203 30.8383 15.7541 31.3405 18.1663 30.1988C20.8467 28.9302 22.6485 25.9433 22.0201 22.6955C21.4836 19.9221 19.0308 17.4156 15.9375 17.2078C13.1073 17.0177 10.9348 18.2479 9.48404 20.6739C8.61741 22.1231 8.42234 23.7341 8.77395 25.5163Z" fill="#003830"/>
<path d="M53.8842 12.3942C54.2474 12.5971 54.5687 12.7711 54.8874 12.9436C59.7447 4.79133 68.9831 3.13084 75.7569 6.88434C83.3607 11.0977 85.6951 19.4403 82.5666 26.906C80.7752 31.1812 77.496 34.1635 73.0506 35.4671C68.6796 36.7489 64.3593 36.3595 60.4426 33.9938C59.5531 35.1221 58.801 36.307 57.8276 37.2637C55.6554 39.3988 53.1517 40.9991 50.0774 41.5217C47.2007 42.0108 44.3672 41.9496 41.5833 40.985C39.6865 40.3277 38.0492 39.26 36.5609 37.9157C34.9711 36.4796 33.6822 34.8283 32.7716 32.8839C31.9392 31.1064 31.4915 29.2356 31.4417 27.266C31.3881 25.1496 31.4913 23.0653 32.2277 21.0422C32.9249 19.1268 33.9449 17.4399 35.3107 15.932C36.6705 14.4307 38.2024 13.1801 40.0123 12.2832C41.9703 11.3129 44.0344 10.8484 46.227 10.7873C48.9041 10.7127 51.4429 11.1588 53.8842 12.3942ZM71.6993 14.6227C70.3533 13.8411 68.8673 13.5739 67.3806 13.8304C64.0527 14.4045 61.6144 17.3229 61.6507 20.7111C61.6869 24.0912 64.5762 27.3492 68.3015 27.3789C69.9227 27.3918 71.3613 26.8582 72.6728 25.8776C74.4955 24.5149 75.5705 21.5205 75.068 19.2788C74.614 17.2538 73.4751 15.7789 71.6993 14.6227ZM40.2126 24.8858C40.169 25.4644 40.0799 26.0439 40.0899 26.6216C40.1268 28.7678 41.1254 30.4603 42.7727 31.7092C44.7708 33.224 46.9911 33.4792 49.3572 32.5682C51.6342 31.6916 53.3856 29.3309 53.5766 26.935C53.7627 24.6013 52.9433 22.6662 51.2107 21.1423C49.5934 19.72 47.6828 19.1686 45.5772 19.6101C42.7534 20.2023 40.9974 21.9884 40.2126 24.8858Z" fill="#003830"/>
</svg>
